<svg
  xmlns="http://www.w3.org/2000/svg"
  width="860"
  height="520"
  viewBox="0 0 860 520"
  preserveAspectRatio="xMidYMid meet"
  fill="none"
>
  <defs>
    <linearGradient id="hub" x1="250" y1="160" x2="610" y2="360" gradientUnits="userSpaceOnUse">
      <stop stop-color="#2457D6" />
      <stop offset="0.55" stop-color="#3359DB" />
      <stop offset="1" stop-color="#157A78" />
    </linearGradient>
    <linearGradient id="node" x1="0" y1="0" x2="1" y2="1">
      <stop stop-color="#5CA7FF" />
      <stop offset="1" stop-color="#5A4FF2" />
    </linearGradient>
    <linearGradient id="line" x1="0" y1="0" x2="1" y2="1">
      <stop stop-color="#7DD3FC" stop-opacity="0.18" />
      <stop offset="0.45" stop-color="#60A5FA" />
      <stop offset="1" stop-color="#818CF8" />
    </linearGradient>
    <radialGradient id="glowBlue" cx="0" cy="0" r="1" gradientUnits="userSpaceOnUse" gradientTransform="translate(184 164) rotate(90) scale(168 218)">
      <stop stop-color="#7DD3FC" stop-opacity="0.28" />
      <stop offset="1" stop-color="#7DD3FC" stop-opacity="0" />
    </radialGradient>
    <radialGradient id="glowViolet" cx="0" cy="0" r="1" gradientUnits="userSpaceOnUse" gradientTransform="translate(662 166) rotate(90) scale(184 228)">
      <stop stop-color="#A5B4FC" stop-opacity="0.3" />
      <stop offset="1" stop-color="#A5B4FC" stop-opacity="0" />
    </radialGradient>
    <filter id="shadow" x="180" y="110" width="500" height="340" filterUnits="userSpaceOnUse" color-interpolation-filters="sRGB">
      <feFlood flood-opacity="0" result="BackgroundImageFix" />
      <feColorMatrix in="SourceAlpha" type="matrix" values="0 0 0 0 0 0 0 0 0 0 0 0 0 0 0 0 0 0 127 0" result="hardAlpha" />
      <feOffset dy="18" />
      <feGaussianBlur stdDeviation="22" />
      <feColorMatrix type="matrix" values="0 0 0 0 0.145098 0 0 0 0 0.341176 0 0 0 0 0.839216 0 0 0 0.18 0" />
      <feBlend in2="BackgroundImageFix" result="effect1_dropShadow_1" />
      <feBlend in="SourceGraphic" in2="effect1_dropShadow_1" result="shape" />
    </filter>
    <filter id="soft" x="0" y="0" width="860" height="520" filterUnits="userSpaceOnUse" color-interpolation-filters="sRGB">
      <feFlood flood-opacity="0" result="BackgroundImageFix" />
      <feGaussianBlur in="BackgroundImageFix" stdDeviation="10" />
      <feComposite in2="SourceAlpha" operator="in" result="effect1_backgroundBlur_1" />
      <feBlend in="SourceGraphic" in2="effect1_backgroundBlur_1" result="shape" />
    </filter>
  </defs>

  <circle cx="186" cy="162" r="138" fill="url(#glowBlue)" />
  <circle cx="666" cy="164" r="148" fill="url(#glowViolet)" />
  <circle cx="622" cy="396" r="112" fill="url(#glowBlue)" opacity="0.42" />

  <g filter="url(#shadow)">
    <rect x="248" y="148" width="364" height="210" rx="34" fill="url(#hub)" />
    <rect x="248.75" y="148.75" width="362.5" height="208.5" rx="33.25" stroke="white" stroke-opacity="0.14" stroke-width="1.5" />
  </g>

  <g opacity="0.88">
    <rect x="292" y="192" width="122" height="60" rx="18" fill="white" fill-opacity="0.12" />
    <rect x="446" y="192" width="118" height="60" rx="18" fill="white" fill-opacity="0.12" />
    <rect x="316" y="280" width="230" height="16" rx="8" fill="white" fill-opacity="0.14" />
    <rect x="316" y="308" width="164" height="10" rx="5" fill="white" fill-opacity="0.18" />
  </g>

  <g filter="url(#soft)">
    <path d="M204 226H248C280 226 288 204 312 204H360" stroke="url(#line)" stroke-width="6" stroke-linecap="round" />
    <path d="M548 204H592C622 204 636 224 662 224H712" stroke="url(#line)" stroke-width="6" stroke-linecap="round" />
    <path d="M404 358V386C404 408 424 424 446 424H520" stroke="url(#line)" stroke-width="6" stroke-linecap="round" />
    <path d="M388 146V120C388 98 404 84 426 84H474" stroke="url(#line)" stroke-width="6" stroke-linecap="round" />
  </g>

  <g>
    <circle cx="204" cy="226" r="12" fill="#60A5FA" />
    <circle cx="712" cy="224" r="12" fill="#4F46E5" />
    <circle cx="520" cy="424" r="12" fill="#38BDF8" />
    <circle cx="474" cy="84" r="12" fill="#A78BFA" />
    <circle cx="404" cy="358" r="12" fill="#A5B4FC" />
    <circle cx="404" cy="358" r="22" stroke="#A5B4FC" stroke-opacity="0.22" stroke-width="2" />
  </g>

  <g>
    <rect x="122" y="186" width="124" height="78" rx="22" fill="url(#node)" />
    <rect x="122.75" y="186.75" width="122.5" height="76.5" rx="21.25" stroke="white" stroke-opacity="0.2" stroke-width="1.5" />
    <circle cx="160" cy="220" r="10" fill="white" />
    <rect x="182" y="212" width="34" height="6" rx="3" fill="white" />
    <rect x="182" y="226" width="26" height="6" rx="3" fill="white" fill-opacity="0.84" />
    <rect x="144" y="245" width="78" height="8" rx="4" fill="white" fill-opacity="0.16" />
  </g>

  <g>
    <rect x="618" y="184" width="122" height="78" rx="22" fill="#4B8BFF" fill-opacity="0.92" />
    <rect x="618.75" y="184.75" width="120.5" height="76.5" rx="21.25" stroke="white" stroke-opacity="0.2" stroke-width="1.5" />
    <circle cx="656" cy="218" r="10" fill="white" />
    <rect x="678" y="210" width="36" height="6" rx="3" fill="white" />
    <rect x="678" y="224" width="28" height="6" rx="3" fill="white" fill-opacity="0.84" />
    <rect x="640" y="243" width="80" height="8" rx="4" fill="white" fill-opacity="0.16" />
  </g>

  <g>
    <rect x="452" y="392" width="148" height="78" rx="22" fill="#E7EEFF" fill-opacity="0.92" />
    <rect x="452.75" y="392.75" width="146.5" height="76.5" rx="21.25" stroke="#9CC3FF" stroke-opacity="0.76" stroke-width="1.5" />
    <rect x="478" y="418" width="58" height="8" rx="4" fill="#4F46E5" fill-opacity="0.86" />
    <rect x="478" y="435" width="92" height="8" rx="4" fill="#60A5FA" fill-opacity="0.66" />
    <rect x="478" y="449" width="70" height="8" rx="4" fill="#94A3B8" fill-opacity="0.56" />
  </g>

  <g>
    <rect x="218" y="390" width="150" height="74" rx="22" fill="white" fill-opacity="0.82" />
    <rect x="218.75" y="390.75" width="148.5" height="72.5" rx="21.25" stroke="#BFDBFE" stroke-opacity="0.8" stroke-width="1.5" />
    <path d="M248 422H314" stroke="#1D4ED8" stroke-width="8" stroke-linecap="round" />
    <path d="M248 441H326" stroke="#94A3B8" stroke-width="8" stroke-linecap="round" />
    <path d="M248 456H300" stroke="#CBD5E1" stroke-width="8" stroke-linecap="round" />
  </g>

  <g opacity="0.94">
    <rect x="150" y="146" width="64" height="28" rx="14" fill="white" fill-opacity="0.86" />
    <rect x="151" y="147" width="62" height="26" rx="13" stroke="#BFDBFE" stroke-opacity="0.78" />
    <text x="182" y="164" fill="#1D4ED8" font-family="'Segoe UI', 'PingFang SC', 'Microsoft YaHei', sans-serif" font-size="12" font-weight="700" text-anchor="middle">需求</text>

    <rect x="444" y="36" width="64" height="28" rx="14" fill="white" fill-opacity="0.86" />
    <rect x="445" y="37" width="62" height="26" rx="13" stroke="#BFDBFE" stroke-opacity="0.78" />
    <text x="476" y="54" fill="#1D4ED8" font-family="'Segoe UI', 'PingFang SC', 'Microsoft YaHei', sans-serif" font-size="12" font-weight="700" text-anchor="middle">研发</text>

    <rect x="682" y="144" width="64" height="28" rx="14" fill="white" fill-opacity="0.86" />
    <rect x="683" y="145" width="62" height="26" rx="13" stroke="#BFDBFE" stroke-opacity="0.78" />
    <text x="714" y="162" fill="#1D4ED8" font-family="'Segoe UI', 'PingFang SC', 'Microsoft YaHei', sans-serif" font-size="12" font-weight="700" text-anchor="middle">测试</text>

    <rect x="520" y="474" width="64" height="28" rx="14" fill="white" fill-opacity="0.86" />
    <rect x="521" y="475" width="62" height="26" rx="13" stroke="#BFDBFE" stroke-opacity="0.78" />
    <text x="552" y="492" fill="#1D4ED8" font-family="'Segoe UI', 'PingFang SC', 'Microsoft YaHei', sans-serif" font-size="12" font-weight="700" text-anchor="middle">验证</text>
  </g>

  <g opacity="0.86">
    <rect x="302" y="114" width="256" height="40" rx="20" fill="white" fill-opacity="0.48" />
    <rect x="302.75" y="114.75" width="254.5" height="38.5" rx="19.25" stroke="#D9E8FF" stroke-opacity="0.72" stroke-width="1.5" />
    <circle cx="332" cy="134" r="6" fill="#3B82F6" />
    <circle cx="362" cy="134" r="6" fill="#60A5FA" />
    <circle cx="392" cy="134" r="6" fill="#818CF8" />
    <path d="M438 134H518" stroke="#B7C7EA" stroke-width="3.5" stroke-linecap="round" />
  </g>

  <g opacity="0.9">
    <rect x="312" y="440" width="238" height="24" rx="12" fill="white" fill-opacity="0.52" />
    <circle cx="342" cy="452" r="5" fill="#60A5FA" />
    <circle cx="402" cy="452" r="5" fill="#4F46E5" />
    <circle cx="462" cy="452" r="5" fill="#38BDF8" />
    <circle cx="522" cy="452" r="5" fill="#22C55E" />
    <path d="M342 452H522" stroke="#B9CDF6" stroke-width="2.5" stroke-linecap="round" />
  </g>
</svg>
